<?xml version="1.0" encoding="utf-8"?>
<!-- Generator: Adobe Illustrator 24.0.2, SVG Export Plug-In . SVG Version: 6.00 Build 0)  -->
<svg version="1.1" id="Capa_1" xmlns="http://www.w3.org/2000/svg" xmlns:xlink="http://www.w3.org/1999/xlink" x="0px" y="0px"
	 viewBox="0 0 529 512" style="enable-background:new 0 0 529 512;" xml:space="preserve">
<g>
	<path fill="#fff" d="M522.8,99.2l-0.1-30l-362,1.3l-0.1-30l-90,0.3l0.1,30l-60,0.2l0.1,30l60-0.2l0.1,30l90-0.3l-0.1-30L522.8,99.2z"/>
	<path fill="#fff" d="M162.1,461.5l362-1.3l-0.1-30l-362,1.3l-0.1-30l-90,0.3l0.1,30l-60,0.2l0.1,30l60-0.2l0.1,30l90-0.3L162.1,461.5z"/>
	<path fill="#fff" d="M523.7,340.2l-0.1-30l-222,0.8l-0.1-30l-90,0.3l0.1,30l-200,0.7l0.1,30l200-0.7l0.1,30l90-0.3l-0.1-30L523.7,340.2z"/>
	<path fill="#fff" d="M523.2,219.2l-0.1-30l-53.7,0.2l-0.1-30l-90,0.3l0.1,30l-368.3,1.4l0.1,30l368.3-1.4l0.1,30l90-0.3l-0.1-30L523.2,219.2z"
		/>
</g>
</svg>
