<?xml version="1.0" encoding="utf-8"?>
<!-- Generator: Adobe Illustrator 24.0.2, SVG Export Plug-In . SVG Version: 6.00 Build 0)  -->
<svg version="1.1" id="Capa_1" xmlns="http://www.w3.org/2000/svg" xmlns:xlink="http://www.w3.org/1999/xlink" x="0px" y="0px"
	 viewBox="0 0 420 512" style="enable-background:new 0 0 420 512;" xml:space="preserve">
<g>
	<g>
		<path d="M310,429c-5.5,0-10,4.5-10,10s4.5,10,10,10s10-4.5,10-10S315.5,429,310,429z"/>
	</g>
</g>
<g>
	<g>
		<path d="M110,429c-5.5,0-10,4.5-10,10s4.5,10,10,10s10-4.5,10-10S115.5,429,110,429z"/>
	</g>
</g>
<g>
	<g>
		<path d="M401.6,377.2c-11.3-17.4-26.7-31.3-44.8-40.2c-1.5-1.4-3.5-2.4-5.7-2.6c-13.1-5.6-26.9-8.4-41.1-8.4h-30v-26.4
			c17.4-14.9,29.8-34.6,35.9-56.6h4.1c22.1,0,40-17.9,40-40c0-10.5-4-20-10.6-27.1c0.6-0.5,1.2-1.1,1.8-1.7
			c5.7-5.7,8.8-13.2,8.8-21.2c0-13.2-8.5-24.4-20.3-28.4c-3.5-46-35.8-85.3-80.2-97.6c-2.6-13.8-14-27-29.4-27h-40
			c-15.4,0-26.8,13.3-29.4,27c-44.4,12.3-76.7,51.6-80.2,97.6c-4.3,1.5-8.2,3.9-11.6,7.2C63.1,137.5,60,145,60,153
			c0,9.2,4.1,17.4,10.6,22.9C64,183,60,192.5,60,203c0,22.1,17.9,40,40,40h4.1c5.1,18.4,14.6,35.2,28,49.1c2.5,2.6,5.2,5.1,7.9,7.5
			V326h-30c-14.2,0-28,2.8-41.1,8.4c-2.2,0.2-4.2,1.2-5.7,2.6c-18.1,8.9-33.6,22.8-44.8,40.2C6.3,395.8,0,417.2,0,439v63
			c0,5.5,4.5,10,10,10h400c5.5,0,10-4.5,10-10v-63C420,417.2,413.7,395.8,401.6,377.2z M60,492H20v-53c0-30.4,15.6-59.6,40-76.9V492
			z M320,223h-0.5c0.3-3.3,0.5-6.7,0.5-10v-30c11,0,20,9,20,20S331,223,320,223z M160,48.1V93c0,5.5,4.5,10,10,10s10-4.5,10-10V35.1
			c0,0,0-0.1,0-0.1v-2c0-6.2,5.2-13,10-13h40c4.8,0,10,6.8,10,13v2c0,0,0,0.1,0,0.1V93c0,5.5,4.5,10,10,10s10-4.5,10-10V48.1
			c32.3,11.4,55.6,40.6,59.4,74.9H100.6C104.4,88.8,127.7,59.6,160,48.1z M100,223c-11,0-20-9-20-20s9-20,20-20v30
			c0,3.3,0.2,6.7,0.5,10H100z M100,163H90c-5.5,0-10-4.5-10-10c0-2.7,1-5.2,2.9-7.1c1.9-1.9,4.4-2.9,7.1-2.9h240c5.5,0,10,4.5,10,10
			c0,2.7-1,5.2-2.9,7.1c-1.9,1.9-4.4,2.9-7.1,2.9h-10h-10H110H100z M121.8,231.2c0-0.1,0-0.2-0.1-0.3C120.6,225,120,219,120,213v-30
			h180v30c0,6-0.6,12-1.8,17.9c0,0.1,0,0.2-0.1,0.3c-4.5,22.3-16.8,42.3-34.8,56.2C247.7,299.6,229.2,306,210,306
			s-37.7-6.4-53.4-18.6c-3.6-2.8-7-5.8-10.1-9.1C133.9,265.1,125.4,248.9,121.8,231.2z M200,492h-80v-23c0-5.5-4.5-10-10-10
			s-10,4.5-10,10v23H80V351.5c6.5-2.4,13.2-4.1,20-4.9V409c0,5.5,4.5,10,10,10s10-4.5,10-10v-63h25.7l54.3,57V492z M160,332v-18.6
			c15.4,8.3,32.4,12.6,50,12.6c17.6,0,34.6-4.3,50-12.6V332l-50,52.5L160,332z M340,492h-20v-23c0-5.5-4.5-10-10-10s-10,4.5-10,10
			v23h-80v-89l54.3-57H300v63c0,5.5,4.5,10,10,10s10-4.5,10-10v-62.4c6.8,0.8,13.5,2.4,20,4.9V492z M400,492h-40V362.1
			c24.4,17.3,40,46.5,40,76.9V492z"/>
	</g>
</g>
</svg>
