<?xml version="1.0" encoding="utf-8"?>
<!-- Generator: Adobe Illustrator 24.0.2, SVG Export Plug-In . SVG Version: 6.00 Build 0)  -->
<svg version="1.1" id="Слой_1" xmlns="http://www.w3.org/2000/svg" xmlns:xlink="http://www.w3.org/1999/xlink" x="0px" y="0px"
	 viewBox="0 0 512 435.8" style="enable-background:new 0 0 512 435.8;" xml:space="preserve">
<g id="Page-1">
	<g id="_x30_39---Tape-Measure" transform="translate(0 -1)">
		<path id="Shape" d="M154.6,99.6c3-0.7,5.4-2.9,6.3-5.9c0.9-3,0.1-6.2-2.1-8.4s-5.4-3.1-8.3-2.3C82.1,100,34,161.5,34.1,232
			c0,4.7,3.8,8.5,8.5,8.5s8.5-3.8,8.5-8.5C51.1,169.4,93.8,114.7,154.6,99.6z"/>
		<path id="Shape_1_" d="M486.4,283.2H375.5V232c0.1-38-11.5-75.1-33.1-106.3L347,68c0.7-8.3-2.8-16.5-9.2-21.8
			c-24.7-20.1-53.1-35-83.7-43.7c-8.7-2.4-18.1,0-24.6,6.4l-36.8,35.7c-1.7,0-3.4-0.2-5.1-0.2C84.1,44.4,0.1,128.4,0,232v153.6
			c0,28.3,22.9,51.2,51.2,51.2h264.5c29.7,0,54.8-21.8,59.1-51.2h77.5v25.6c0,14.1,11.5,25.6,25.6,25.6h8.5
			c14.1,0,25.6-11.5,25.6-25.6V308.8C512,294.7,500.5,283.2,486.4,283.2z M241.5,21.1c2.1-2.1,5.1-2.9,8-2.2
			c28.3,8.1,54.7,21.9,77.6,40.6c2.1,1.8,3.2,4.5,3,7.2l-3.2,39.6c-2.1-2.3-4.1-4.8-6.3-7c-28.4-28.5-65.4-47-105.2-52.8L241.5,21.1
			z M102.4,419.8H51.2c-18.9,0-34.1-15.3-34.1-34.1v-76.8c0-4.7,3.8-8.5,8.5-8.5h6.6c3.1,0,6,1.7,7.5,4.4
			c17.2,32,43.4,58.3,75.4,75.7c2.8,1.5,4.5,4.3,4.5,7.5v23.4c0,4.7-3.8,8.5-8.5,8.5H102.4z M358.4,377.1
			c0,23.6-19.1,42.6-42.7,42.7H135c1-2.7,1.5-5.6,1.6-8.5v-23.4c0-9.5-5.3-18.3-13.7-22.6c-28.8-15.9-52.5-39.8-68.2-68.7
			c-4.5-8.2-13.1-13.3-22.5-13.3h-6.6c-2.9,0-5.8,0.6-8.5,1.6V232c0-94.3,76.4-170.7,170.7-170.7S358.4,137.8,358.4,232V377.1z
			 M375.5,368.6v-68.3h25.6v17.1c0,4.7,3.8,8.5,8.5,8.5c4.7,0,8.5-3.8,8.5-8.5v-17.1h34.1v68.3H375.5z M494.9,411.2
			c0,4.7-3.8,8.5-8.5,8.5h-8.5c-4.7,0-8.5-3.8-8.5-8.5V300.3h17.1c4.7,0,8.5,3.8,8.5,8.5V411.2z"/>
		<circle id="Oval" cx="187.7" cy="87" r="8.5"/>
		<path id="Shape_2_" d="M273.1,368.6c0,18.9,15.3,34.1,34.1,34.1c18.9,0,34.1-15.3,34.1-34.1c0-18.9-15.3-34.1-34.1-34.1
			C288.3,334.4,273.1,349.7,273.1,368.6z M324.3,368.6c0,9.4-7.6,17.1-17.1,17.1s-17.1-7.6-17.1-17.1c0-9.4,7.6-17.1,17.1-17.1
			S324.3,359.2,324.3,368.6z"/>
		<path id="Shape_3_" d="M187.7,146.7c-51.8,0-93.9,42-93.9,93.9s42,93.9,93.9,93.9s93.9-42,93.9-93.9
			C281.5,188.8,239.5,146.8,187.7,146.7z M187.7,317.4c-42.4,0-76.8-34.4-76.8-76.8s34.4-76.8,76.8-76.8s76.8,34.4,76.8,76.8
			C264.5,283,230.1,317.3,187.7,317.4z"/>
	</g>
</g>
</svg>
