<?xml version="1.0" encoding="utf-8"?>
<!-- Generator: Adobe Illustrator 24.0.2, SVG Export Plug-In . SVG Version: 6.00 Build 0)  -->
<svg version="1.1" id="Слой_1" xmlns="http://www.w3.org/2000/svg" xmlns:xlink="http://www.w3.org/1999/xlink" x="0px" y="0px"
	 viewBox="0 0 273.8 95.9" style="enable-background:new 0 0 273.8 95.9;" xml:space="preserve">
<style type="text/css">
	.st0{enable-background:new    ;}
	.st1{fill:#393939;}
</style>
<g id="Группа_1">
	<g class="st0">
		<path class="st1" d="M0.1,0c1.7,0.1,3.8,0.1,6.5,0.2c2.6,0.1,5.3,0.1,7.9,0.1c3.5,0,6.8,0,9.9-0.1c3.2-0.1,5.4-0.1,6.7-0.1
			c8.1,0,14.2,1.6,18.2,4.8c4,3.2,6,7.3,6,12.3c0,2.5-0.6,5-1.8,7.5c-1.2,2.5-3.1,4.7-5.8,6.7c-2.7,2-6.2,3.6-10.6,4.7v0.2
			c6.1,0.7,10.9,2,14.3,3.9s5.9,4.3,7.4,7c1.4,2.7,2.2,5.5,2.2,8.5c0,6.4-2.4,11.5-7.2,15.3c-4.8,3.8-11.5,5.7-20.2,5.7
			c-1.6,0-4-0.1-7.2-0.2c-3.2-0.1-7.1-0.2-11.7-0.2c-2.8,0-5.5,0-8.1,0.1c-2.6,0-4.8,0.1-6.5,0.3v-2.2c2.5-0.1,4.3-0.4,5.5-0.9
			c1.2-0.4,2-1.3,2.4-2.6c0.4-1.3,0.6-3.3,0.6-5.9V11.5c0-2.7-0.2-4.6-0.6-5.9C7.7,4.3,6.8,3.5,5.6,3C4.3,2.5,2.5,2.2,0.1,2.2V0z
			 M28.8,2.2c-3.1,0-5.2,0.6-6.1,1.8c-1,1.2-1.5,3.7-1.5,7.5v53.8c0,3.8,0.5,6.2,1.5,7.3c1,1.1,3.2,1.7,6.4,1.7
			c6.5,0,11.2-1.6,14.2-4.9c2.9-3.3,4.4-8,4.4-14c0-5.6-1.5-9.9-4.4-12.9c-2.9-3-7.8-4.6-14.5-4.6H18.2V36h9.3c4,0,7.1-0.8,9.2-2.4
			c2.2-1.6,3.7-3.8,4.5-6.5c0.8-2.7,1.2-5.6,1.2-8.7c0-5.3-1.1-9.4-3.2-12.1C37.2,3.5,33.7,2.2,28.8,2.2z"/>
	</g>
	<g class="st0">
		<path class="st1" d="M90.4,19c13.4,0,23.4,3.2,29.9,9.7c6.5,6.5,9.8,15.7,9.8,27.8c0,7.9-1.6,14.8-4.8,20.7
			c-3.2,5.9-7.8,10.5-13.9,13.7c-6,3.3-13.4,4.9-22,4.9c-1.6,0-4-0.1-7.1-0.2c-3.2-0.1-5.9-0.2-8.3-0.2c-2.8,0-5.5,0-8.1,0.1
			c-2.6,0-4.8,0.1-6.5,0.3v-2.2c2.5-0.1,4.3-0.4,5.5-0.9c1.2-0.4,2-1.3,2.4-2.6c0.4-1.3,0.6-3.3,0.6-5.9V30.5c0-2.7-0.2-4.6-0.6-5.9
			c-0.4-1.3-1.2-2.1-2.5-2.6c-1.3-0.5-3.1-0.7-5.5-0.8V19c1.7,0.1,3.8,0.2,6.5,0.3c2.6,0.1,5.3,0.1,7.9,0.1c2.6-0.1,5.5-0.1,8.7-0.2
			C85.8,19,88.4,19,90.4,19z M88.6,20.9c-3.3,0-5.5,0.6-6.5,1.8c-1,1.2-1.5,3.7-1.5,7.5v54.2c0,3.8,0.5,6.3,1.6,7.5
			c1,1.2,3.2,1.8,6.6,1.8c7.3,0,13-1.4,17.1-4.3c4.1-2.9,6.9-7,8.6-12.5c1.7-5.5,2.5-12.2,2.5-20.1c0-12.1-2.1-21.2-6.3-27.1
			C106.3,23.9,99,20.9,88.6,20.9z"/>
	</g>
</g>
<g class="st0">
	<path class="st1" d="M166.9,18.5c-0.1,1-0.2,1.9-0.2,2.9c0,0.9-0.1,1.6-0.1,2.1c0,0.5,0,0.9,0,1.3c0,0.4,0,0.8,0.1,1.1h-0.8
		c-0.2-1.7-0.6-2.9-1-3.9s-1-1.6-1.7-2c-0.7-0.4-1.6-0.6-2.8-0.6H159c-0.7,0-1.3,0.1-1.7,0.2c-0.4,0.1-0.6,0.4-0.8,0.8
		c-0.1,0.4-0.2,1-0.2,1.8v18.1c0,1.2,0.1,2,0.4,2.5c0.3,0.4,0.9,0.6,1.8,0.6c1.3,0,2.4-0.3,3.1-0.8c0.7-0.6,1.2-1.4,1.5-2.4
		c0.3-1,0.4-2.2,0.4-3.5c0-1.5-0.2-2.7-0.5-3.8c-0.3-1.1-0.9-1.9-1.7-2.4c-0.8-0.6-1.9-0.8-3.4-0.8c-0.3,0-0.7,0-1.2,0
		c-0.5,0-1,0-1.5,0c-0.5,0-0.9,0-1.1,0l-0.1-0.7c0.9,0,1.8,0,2.7,0s1.6,0,2.1,0c1.8,0,3.3,0.2,4.6,0.6c1.2,0.4,2.3,0.9,3,1.7
		c0.8,0.7,1.3,1.5,1.7,2.4c0.4,0.9,0.5,1.9,0.5,2.9c0,1.3-0.3,2.5-1,3.7c-0.6,1.1-1.7,2.1-3.1,2.8c-1.5,0.7-3.4,1.1-5.9,1.1
		c-0.6,0-1.3,0-2-0.1c-0.8,0-1.8-0.1-3.1-0.1c-0.8,0-1.7,0-2.6,0s-1.7,0-2.3,0.1v-0.7c0.8,0,1.4-0.1,1.8-0.3
		c0.4-0.1,0.7-0.4,0.8-0.9c0.1-0.4,0.2-1.1,0.2-1.9V22.3c0-0.9-0.1-1.5-0.2-2c-0.1-0.4-0.4-0.7-0.8-0.9c-0.4-0.2-1-0.2-1.8-0.3v-0.7
		c1.3,0,2.6,0,4.1,0.1c1.4,0,2.8,0,4.1,0c1.3,0,2.3,0,3.1,0c1,0,2.2,0,3.4,0C164.7,18.6,165.8,18.6,166.9,18.5z"/>
	<path class="st1" d="M190.2,18.5c-0.1,1-0.2,1.9-0.2,2.9c0,0.9-0.1,1.6-0.1,2.1c0,0.5,0,0.9,0,1.3c0,0.4,0,0.8,0.1,1.1h-0.8
		c-0.2-1.7-0.5-2.9-0.9-3.9s-1-1.6-1.7-2c-0.7-0.4-1.7-0.6-2.9-0.6h-2c-0.7,0-1.3,0.1-1.7,0.2c-0.4,0.1-0.6,0.4-0.8,0.8
		c-0.1,0.4-0.2,1-0.2,1.8v18.4c0,0.8,0.1,1.3,0.2,1.7c0.1,0.4,0.4,0.7,0.8,0.8c0.4,0.1,0.9,0.2,1.7,0.2h2c1.2,0,2.2-0.2,3.1-0.7
		c0.8-0.5,1.5-1.2,2-2.2c0.5-1,0.9-2.5,1.1-4.3h0.8c-0.1,0.7-0.1,1.7-0.1,2.9c0,0.5,0,1.2,0.1,2.2c0,1,0.1,2,0.2,3
		c-1.2,0-2.6-0.1-4.1-0.1c-1.5,0-2.9,0-4.1,0c-0.8,0-1.8,0-3.1,0c-1.3,0-2.7,0-4.1,0c-1.5,0-2.8,0-4.1,0.1v-0.7
		c0.8,0,1.4-0.1,1.8-0.3c0.4-0.1,0.7-0.4,0.8-0.9c0.1-0.4,0.2-1.1,0.2-1.9V22.3c0-0.9-0.1-1.5-0.2-2c-0.1-0.4-0.4-0.7-0.8-0.9
		c-0.4-0.2-1-0.2-1.8-0.3v-0.7c1.3,0,2.6,0,4.1,0.1c1.4,0,2.8,0,4.1,0c1.3,0,2.3,0,3.1,0c1.1,0,2.4,0,3.8,0
		C187.8,18.6,189.1,18.6,190.2,18.5z M184.4,30.8v0.7H178v-0.7H184.4z M185.4,26.1c-0.1,1.4-0.1,2.4-0.1,3.1c0,0.7,0,1.4,0,2
		s0,1.3,0,2c0,0.7,0.1,1.8,0.2,3.1h-0.8c-0.1-0.8-0.3-1.6-0.6-2.3c-0.3-0.7-0.6-1.3-1.2-1.8c-0.5-0.4-1.3-0.7-2.3-0.7v-0.7
		c1,0,1.8-0.3,2.3-0.8c0.5-0.5,0.9-1.2,1.1-1.9c0.2-0.7,0.4-1.4,0.5-2H185.4z"/>
	<path class="st1" d="M216.8,18.5v0.7c-0.8,0-1.4,0.1-1.9,0.3c-0.4,0.2-0.7,0.4-0.8,0.9c-0.1,0.4-0.2,1.1-0.2,2v17.8
		c0,0.9,0.1,1.5,0.2,1.9c0.1,0.4,0.4,0.7,0.8,0.9c0.4,0.1,1,0.2,1.9,0.3v0.7c-0.6,0-1.4-0.1-2.3-0.1s-2,0-3.1,0c-1.1,0-2.1,0-3.2,0
		s-1.9,0-2.6,0.1v-0.7c0.9,0,1.6-0.1,2.1-0.3c0.5-0.1,0.8-0.4,1-0.9c0.2-0.4,0.3-1.1,0.3-1.9V22.3c0-1.3-0.2-2.2-0.5-2.5
		c-0.4-0.4-1.1-0.6-2.1-0.6H206c-0.6,0-1.2,0.1-1.5,0.2c-0.4,0.2-0.6,0.5-0.8,0.9c-0.2,0.4-0.3,1.1-0.3,2c-0.1,1.7-0.3,3.5-0.4,5.5
		c-0.1,2-0.3,4-0.6,5.9c-0.2,2-0.6,3.7-1.1,5.3c-0.5,1.6-1.2,2.9-2,3.9c-0.9,1-2,1.5-3.4,1.5c-1,0-1.8-0.3-2.6-0.8
		c-0.7-0.5-1.1-1.3-1.1-2.2c0-0.8,0.3-1.5,0.8-2s1.2-0.8,2-0.8c0.7,0,1.3,0.2,1.7,0.5s0.6,0.8,0.6,1.5c0,0.8-0.2,1.4-0.7,1.9
		c-0.4,0.5-1,0.8-1.7,1.1c0.1,0,0.3,0.1,0.4,0.1c0.2,0,0.3,0,0.4,0c1.1,0,2-0.4,2.8-1.3c0.7-0.8,1.3-2,1.8-3.4
		c0.5-1.4,0.8-3.1,1.1-4.9c0.3-1.8,0.5-3.8,0.6-5.8c0.1-2,0.3-4,0.4-6c0.1-1.3,0-2.1-0.4-2.5c-0.4-0.4-1.2-0.6-2.5-0.6v-0.7
		c0.5,0,1.1,0,1.8,0.1c0.7,0,1.3,0,1.9,0c0.6,0,1.1,0,1.6-0.1c0.5,0,1-0.1,1.6-0.1c0.9,0,1.7,0,2.5,0.1c0.7,0,1.6,0.1,2.7,0.1
		c0.6,0,1.2,0,1.8,0c0.6,0,1.3,0,1.9,0C216,18.6,216.4,18.5,216.8,18.5z"/>
	<path class="st1" d="M230.2,18.5v0.7c-0.9,0-1.6,0.1-2,0.3c-0.5,0.2-0.8,0.4-0.9,0.9c-0.2,0.4-0.2,1.1-0.2,2v17.8
		c0,1.3,0.1,2.1,0.4,2.5c0.3,0.4,0.9,0.6,1.9,0.6c1.3,0,2.3-0.3,3-0.9c0.7-0.6,1.2-1.4,1.5-2.4c0.3-1,0.4-2.2,0.4-3.5
		c0-1.4-0.2-2.7-0.5-3.7c-0.3-1.1-0.9-1.9-1.6-2.4c-0.8-0.6-1.8-0.8-3.2-0.8c-0.7,0-1.4,0-2.2,0c-0.8,0-1.4,0-1.9,0l-0.1-0.7
		c0.9,0,1.8,0,2.7,0c0.9,0,1.6,0,2.1,0c2.4,0,4.3,0.3,5.8,1c1.4,0.6,2.5,1.5,3.1,2.6c0.6,1.1,1,2.3,1,3.6c0,1-0.2,1.9-0.5,2.9
		c-0.3,0.9-0.9,1.8-1.7,2.5c-0.8,0.8-1.8,1.4-3.1,1.8c-1.3,0.5-2.8,0.7-4.7,0.7c-0.5,0-1.2,0-2.1-0.1c-0.8,0-1.8-0.1-2.8-0.1
		c-1,0-1.9,0-2.9,0s-1.7,0-2.3,0.1v-0.7c0.8,0,1.4-0.1,1.8-0.3c0.4-0.1,0.7-0.4,0.8-0.9c0.1-0.4,0.2-1.1,0.2-1.9V22.3
		c0-0.9-0.1-1.5-0.2-2c-0.1-0.4-0.4-0.7-0.8-0.9c-0.4-0.2-1-0.2-1.8-0.3v-0.7c0.6,0,1.4,0,2.3,0.1c0.9,0,1.9,0,3,0
		c1.1,0,2.1,0,3.1,0C228.8,18.6,229.6,18.5,230.2,18.5z M251.4,18.5v0.7c-0.8,0-1.4,0.1-1.7,0.3c-0.4,0.2-0.7,0.4-0.8,0.9
		c-0.1,0.4-0.2,1.1-0.2,2v17.8c0,0.9,0.1,1.5,0.2,1.9c0.1,0.4,0.4,0.7,0.8,0.9c0.4,0.1,1,0.2,1.7,0.3v0.7c-0.6,0-1.4-0.1-2.3-0.1
		c-0.9,0-1.9,0-2.8,0c-1.1,0-2.1,0-3,0s-1.7,0-2.3,0.1v-0.7c0.8,0,1.4-0.1,1.8-0.3c0.4-0.1,0.7-0.4,0.8-0.9c0.1-0.4,0.2-1.1,0.2-1.9
		V22.3c0-0.9-0.1-1.5-0.2-2c-0.1-0.4-0.4-0.7-0.8-0.9c-0.4-0.2-1-0.2-1.8-0.3v-0.7c0.6,0,1.4,0,2.3,0.1c0.9,0,1.9,0,3,0
		c1,0,1.9,0,2.8,0C250.1,18.6,250.8,18.5,251.4,18.5z"/>
	<path class="st1" d="M272.9,18.5c-0.1,1-0.2,1.9-0.2,2.9c0,0.9-0.1,1.6-0.1,2.1c0,0.5,0,0.9,0,1.3c0,0.4,0,0.8,0.1,1.1h-0.8
		c-0.2-1.7-0.5-2.9-0.9-3.9s-1-1.6-1.7-2c-0.7-0.4-1.7-0.6-2.9-0.6h-2c-0.7,0-1.3,0.1-1.7,0.2c-0.4,0.1-0.6,0.4-0.8,0.8
		c-0.1,0.4-0.2,1-0.2,1.8v18.4c0,0.8,0.1,1.3,0.2,1.7c0.1,0.4,0.4,0.7,0.8,0.8c0.4,0.1,0.9,0.2,1.7,0.2h2c1.2,0,2.2-0.2,3.1-0.7
		c0.8-0.5,1.5-1.2,2-2.2c0.5-1,0.9-2.5,1.1-4.3h0.8c-0.1,0.7-0.1,1.7-0.1,2.9c0,0.5,0,1.2,0.1,2.2c0,1,0.1,2,0.2,3
		c-1.2,0-2.6-0.1-4.1-0.1c-1.5,0-2.9,0-4.1,0c-0.8,0-1.8,0-3.1,0c-1.3,0-2.7,0-4.1,0c-1.4,0-2.8,0-4.1,0.1v-0.7
		c0.8,0,1.4-0.1,1.8-0.3c0.4-0.1,0.7-0.4,0.8-0.9c0.1-0.4,0.2-1.1,0.2-1.9V22.3c0-0.9-0.1-1.5-0.2-2c-0.1-0.4-0.4-0.7-0.8-0.9
		c-0.4-0.2-1-0.2-1.8-0.3v-0.7c1.3,0,2.6,0,4.1,0.1c1.5,0,2.8,0,4.1,0c1.3,0,2.3,0,3.1,0c1.1,0,2.4,0,3.8,0S271.8,18.6,272.9,18.5z
		 M267.1,30.8v0.7h-6.4v-0.7H267.1z M268.1,26.1c-0.1,1.4-0.1,2.4-0.1,3.1c0,0.7,0,1.4,0,2s0,1.3,0,2c0,0.7,0.1,1.8,0.2,3.1h-0.8
		c-0.1-0.8-0.3-1.6-0.6-2.3c-0.3-0.7-0.6-1.3-1.2-1.8s-1.3-0.7-2.3-0.7v-0.7c1,0,1.8-0.3,2.3-0.8c0.5-0.5,0.9-1.2,1.1-1.9
		c0.2-0.7,0.4-1.4,0.5-2H268.1z"/>
</g>
<g class="st0">
	<path class="st1" d="M162.6,57.3v0.6c-0.6,0-1.1,0.1-1.4,0.4c-0.3,0.3-0.4,0.8-0.4,1.6v9c0,0.8,0.1,1.3,0.5,1.6
		c0.3,0.3,0.9,0.4,1.8,0.4c-0.1,0.6-0.1,1.2-0.2,1.8s0,1,0,1.3c0,0.7,0,1.3,0.1,1.7h-0.6c-0.1-1.1-0.3-1.9-0.6-2.6
		c-0.2-0.6-0.6-1.1-1-1.4s-1.1-0.4-1.9-0.4c-0.5,0-1.1,0-1.6,0c-0.5,0-1.1,0-1.7,0c-0.6,0-1.4,0-2.4,0c-0.8,0-1.4,0.1-1.9,0.4
		c-0.5,0.3-0.8,0.7-1.1,1.3c-0.2,0.6-0.4,1.5-0.6,2.6h-0.6c0.1-0.4,0.1-1,0.1-1.7c0-0.3,0-0.8,0-1.3s-0.1-1.2-0.2-1.8h6.6
		c0.7,0,1.1-0.1,1.4-0.4c0.3-0.3,0.4-0.8,0.4-1.6v-9c0-0.8-0.1-1.3-0.4-1.6c-0.2-0.3-0.6-0.4-1.2-0.4h-0.2c-0.6,0-1,0.1-1.2,0.4
		c-0.2,0.3-0.3,0.8-0.4,1.5c-0.1,1.1-0.2,2.1-0.3,3.2c-0.1,1.1-0.3,2.1-0.5,3.1c-0.2,1-0.5,1.9-0.8,2.7c-0.3,0.6-0.6,1.1-1,1.6
		c-0.4,0.4-0.9,0.7-1.6,0.7l-0.3-0.4c0.6,0,1.1-0.2,1.5-0.6c0.4-0.4,0.7-0.9,0.9-1.4c0.5-1.2,0.8-2.6,1-4.2c0.2-1.6,0.4-3.2,0.5-4.8
		c0.1-0.8-0.1-1.3-0.5-1.6c-0.4-0.3-0.9-0.4-1.7-0.4v-0.6c0.1,0,0.4,0,0.7,0.1c0.3,0,0.7,0,1.1,0c0.4,0,0.8,0,1.3-0.1
		c0.4,0,0.9-0.1,1.5-0.1c0.7,0,1.2,0,1.7,0.1c0.5,0,1,0.1,1.6,0.1c0.6,0,1.3,0,1.9,0C161.8,57.3,162.3,57.3,162.6,57.3z"/>
	<path class="st1" d="M171.9,57.3c2,0,3.5,0.3,4.3,0.9c0.8,0.6,1.2,1.4,1.2,2.3c0,1-0.5,1.9-1.6,2.6c-1.1,0.7-2.7,1.1-4.8,1
		l-0.6-0.2c1,0,1.7-0.1,2.2-0.4s0.9-0.6,1.1-1.1c0.2-0.5,0.3-1,0.3-1.7c0-0.8-0.2-1.5-0.5-2.1c-0.3-0.6-1-0.9-2.1-0.9
		c-0.6,0-1,0.1-1.2,0.4c-0.2,0.3-0.4,0.8-0.4,1.6v9c0,0.8,0.1,1.3,0.4,1.6c0.2,0.3,0.7,0.4,1.3,0.4c0.9,0,1.5-0.2,2-0.5
		c0.5-0.3,0.8-0.7,0.9-1.2c0.2-0.5,0.3-1,0.3-1.6c0-1.1-0.3-2-0.9-2.4c-0.6-0.5-1.4-0.7-2.4-0.7h-3.5V64h3.8l0.4,0.1
		c2.3,0,3.9,0.3,4.8,0.9c0.9,0.6,1.4,1.5,1.4,2.6c0,0.7-0.2,1.4-0.6,2c-0.4,0.6-1,1-1.8,1.4c-0.9,0.3-2,0.5-3.5,0.5
		c-0.6,0-1.2,0-2-0.1c-0.7,0-1.5-0.1-2.3-0.1c-0.7,0-1.3,0-2,0c-0.7,0-1.2,0.1-1.6,0.1v-0.6c0.7,0,1.2-0.1,1.4-0.4
		c0.3-0.3,0.4-0.8,0.4-1.6v-9c0-0.8-0.1-1.3-0.4-1.6c-0.3-0.3-0.8-0.4-1.4-0.4v-0.6c0.3,0,0.8,0,1.5,0.1c0.7,0,1.3,0,2,0
		c0.8,0,1.5,0,2.2-0.1C170.8,57.3,171.4,57.3,171.9,57.3z"/>
	<path class="st1" d="M186.7,56.9c1.6,0,2.9,0.5,3.8,1.4c0.9,1,1.4,2.5,1.4,4.6h-9.2l0-0.5h6.1c0-0.9,0-1.7-0.2-2.5
		c-0.1-0.8-0.4-1.4-0.7-1.8c-0.3-0.5-0.7-0.7-1.2-0.7c-0.7,0-1.3,0.4-1.8,1.2c-0.5,0.8-0.8,2.1-1,4l0.1,0.2c0,0.2-0.1,0.5-0.1,0.8
		c0,0.3,0,0.5,0,0.8c0,1.3,0.2,2.3,0.5,3.1c0.4,0.8,0.8,1.4,1.4,1.8s1.2,0.6,1.8,0.6c0.6,0,1.3-0.2,2-0.5c0.7-0.3,1.3-1,1.8-1.9
		l0.5,0.2c-0.2,0.6-0.5,1.3-1,1.9c-0.5,0.6-1.1,1.1-1.8,1.5c-0.7,0.4-1.6,0.6-2.6,0.6c-1.2,0-2.3-0.3-3.3-0.8s-1.7-1.4-2.2-2.4
		c-0.5-1.1-0.8-2.4-0.8-4c0-1.7,0.3-3.1,0.8-4.2c0.6-1.1,1.3-2,2.3-2.6C184.3,57.2,185.5,56.9,186.7,56.9z"/>
	<path class="st1" d="M198.8,57v16.7c0,0.8,0.2,1.4,0.7,1.7c0.4,0.3,1.1,0.4,1.8,0.4v0.6c-0.4,0-1.1,0-1.8-0.1c-0.8,0-1.6,0-2.5,0
		c-0.6,0-1.2,0-1.9,0c-0.6,0-1.1,0.1-1.4,0.1v-0.6c0.6,0,1.1-0.1,1.3-0.4c0.3-0.3,0.4-0.7,0.4-1.4V60.3c0-0.8-0.1-1.4-0.4-1.8
		c-0.3-0.4-0.7-0.6-1.5-0.6v-0.6c0.6,0.1,1.2,0.1,1.7,0.1c0.7,0,1.3,0,1.9-0.1S198.3,57.1,198.8,57z M203.1,56.9
		c1.4,0,2.6,0.6,3.5,1.7c0.9,1.1,1.4,2.9,1.4,5.1c0,1.6-0.2,3-0.7,4.2c-0.5,1.2-1.2,2.2-2.1,2.8c-0.9,0.7-2.1,1-3.4,1
		c-0.8,0-1.5-0.1-2.1-0.4c-0.6-0.3-1-0.7-1.3-1.2l0.3-0.4c0.2,0.4,0.5,0.7,0.9,0.9c0.4,0.2,0.8,0.4,1.4,0.4c0.9,0,1.6-0.3,2.1-0.9
		c0.5-0.6,0.9-1.4,1.1-2.4c0.2-1,0.3-2.2,0.3-3.6c0-1.5-0.1-2.7-0.3-3.6c-0.2-0.9-0.5-1.6-0.9-2c-0.4-0.4-0.9-0.6-1.4-0.6
		c-0.7,0-1.4,0.3-2,0.9c-0.6,0.6-1,1.5-1.1,2.6l-0.2-0.8c0.3-1.2,0.8-2.1,1.7-2.8C201,57.2,202,56.9,203.1,56.9z"/>
	<path class="st1" d="M216.8,57.3v0.6c-0.6,0-1,0.1-1.2,0.4c-0.2,0.3-0.4,0.8-0.4,1.6v9c0,0.8,0.1,1.3,0.4,1.6
		c0.2,0.3,0.6,0.4,1.2,0.4v0.6c-0.3,0-0.8,0-1.4-0.1c-0.6,0-1.3,0-1.9,0c-0.7,0-1.4,0-2.1,0c-0.7,0-1.2,0.1-1.6,0.1v-0.6
		c0.7,0,1.2-0.1,1.4-0.4c0.3-0.3,0.4-0.8,0.4-1.6v-9c0-0.8-0.1-1.3-0.4-1.6c-0.3-0.3-0.8-0.4-1.4-0.4v-0.6c0.3,0,0.8,0,1.5,0.1
		s1.3,0,2,0c0.7,0,1.3,0,1.9,0C216,57.3,216.5,57.3,216.8,57.3z M221.1,59.1l0.4,0.3l-6.8,10.8l-0.5-0.3L221.1,59.1z M226.2,57.3
		v0.6c-0.7,0-1.2,0.1-1.4,0.4c-0.3,0.3-0.4,0.8-0.4,1.6v9c0,0.8,0.1,1.3,0.4,1.6c0.3,0.3,0.8,0.4,1.4,0.4v0.6c-0.3,0-0.8,0-1.5-0.1
		c-0.7,0-1.3,0-2,0c-0.7,0-1.3,0-2,0c-0.6,0-1.1,0.1-1.4,0.1v-0.6c0.6,0,1-0.1,1.2-0.4c0.2-0.3,0.4-0.8,0.4-1.6v-9
		c0-0.8-0.1-1.3-0.4-1.6c-0.2-0.3-0.6-0.4-1.2-0.4v-0.6c0.3,0,0.8,0,1.4,0.1c0.6,0,1.2,0,1.9,0c0.7,0,1.3,0,2,0
		S225.8,57.3,226.2,57.3z"/>
</g>
</svg>
