<?xml version="1.0" encoding="utf-8"?>
<!-- Generator: Adobe Illustrator 24.0.2, SVG Export Plug-In . SVG Version: 6.00 Build 0)  -->
<svg version="1.1" id="Capa_1" xmlns="http://www.w3.org/2000/svg" xmlns:xlink="http://www.w3.org/1999/xlink" x="0px" y="0px"
	 viewBox="0 0 512 369" style="enable-background:new 0 0 512 369;" xml:space="preserve">
<g>
	<g>
		<path d="M507.5,29.7L352.2,184l155.3,154.3c2.8-5.9,4.5-12.4,4.5-19.3V49C512,42.1,510.3,35.6,507.5,29.7z"/>
	</g>
</g>
<g>
	<g>
		<path d="M467,4H45c-6.9,0-13.4,1.7-19.3,4.5L224.2,206c17.5,17.5,46.1,17.5,63.6,0L486.3,8.5C480.4,5.7,473.9,4,467,4z"/>
	</g>
</g>
<g>
	<g>
		<path d="M4.5,29.7C1.7,35.6,0,42.1,0,49v270c0,6.9,1.7,13.4,4.5,19.3L159.8,184L4.5,29.7z"/>
	</g>
</g>
<g>
	<g>
		<path d="M331,205.2l-22,22c-29.2,29.2-76.8,29.2-106.1,0l-22-22L25.7,359.5c5.9,2.8,12.4,4.5,19.3,4.5h422
			c6.9,0,13.4-1.7,19.3-4.5L331,205.2z"/>
	</g>
</g>
</svg>
