<?xml version="1.0" encoding="utf-8"?>
<!-- Generator: Adobe Illustrator 24.0.2, SVG Export Plug-In . SVG Version: 6.00 Build 0)  -->
<svg version="1.1" id="Слой_1" xmlns="http://www.w3.org/2000/svg" xmlns:xlink="http://www.w3.org/1999/xlink" x="0px" y="0px"
	 viewBox="0 0 446.6 640.3" style="enable-background:new 0 0 446.6 640.3;" xml:space="preserve">
<path d="M223.4,0.9C100.9,0.9,1.2,100.6,1.2,223.1c0,154,222.5,417.1,222.5,417.1s222-270.7,222-417.1
	C445.7,100.6,346,0.9,223.4,0.9z M290.5,288.2C272,306.7,247.7,316,223.4,316c-24.3,0-48.6-9.2-67.1-27.7c-37-37-37-97.1,0-134.1
	c17.9-17.9,41.7-27.8,67.1-27.8s49.1,9.9,67.1,27.8C327.5,191.1,327.5,251.2,290.5,288.2z"/>
</svg>
